HIERARCHY
ROOT hip
{
	OFFSET 0.000000 0.000000 0.000000
	CHANNELS 6 Xposition Yposition Zposition Xrotation Zrotation Yrotation 
	JOINT abdomen
	{
		OFFSET 0.000000 3.422050 0.000000
		CHANNELS 3 Xrotation Zrotation Yrotation 
		JOINT chest
		{
			OFFSET 0.000000 8.486693 -0.6844110
			CHANNELS 3 Xrotation Zrotation Yrotation 
			JOINT neck
			{
				OFFSET 0.000000 10.26616 -0.2737640
				CHANNELS 3 Xrotation Zrotation Yrotation 
				JOINT head
				{
					OFFSET 0.000000 3.148285 0.000000
					CHANNELS 3 Xrotation Zrotation Yrotation 
					End Site
					{
						OFFSET 0.000000 3.148289 0.000000
					}
				}
			}
			JOINT lCollar
			{
				OFFSET 3.422053 6.707223 -0.8212930
				CHANNELS 3 Yrotation Zrotation Xrotation 
				JOINT lShldr
				{
					OFFSET 3.285171 0.000000 0.000000
					CHANNELS 3 Zrotation Yrotation Xrotation 
					JOINT lForeArm
					{
						OFFSET 10.12928 0.000000 0.000000
						CHANNELS 3 Yrotation Zrotation Xrotation 
						JOINT lHand
						{
							OFFSET 8.486692 0.000000 0.000000
							CHANNELS 3 Zrotation Yrotation Xrotation 
							End Site
							{
								OFFSET 4.106464 0.000000 0.000000
							}
						}
					}
				}
			}
			JOINT rCollar
			{
				OFFSET -3.558935 6.707223 -0.8212930
				CHANNELS 3 Yrotation Zrotation Xrotation 
				JOINT rShldr
				{
					OFFSET -3.148289 0.000000 0.000000
					CHANNELS 3 Zrotation Yrotation Xrotation 
					JOINT rForeArm
					{
						OFFSET -10.26616 0.000000 0.000000
						CHANNELS 3 Yrotation Zrotation Xrotation 
						JOINT rHand
						{
							OFFSET -8.349810 0.000000 0.000000
							CHANNELS 3 Zrotation Yrotation Xrotation 
							End Site
							{
								OFFSET -4.106464 0.000000 0.000000
							}
						}
					}
				}
			}
		}
	}
	JOINT lThigh
	{
		OFFSET 5.338403 -1.642589 1.368821
		CHANNELS 3 Xrotation Zrotation Yrotation 
		JOINT lShin
		{
			OFFSET -2.053232 -20.12167 0.000000
			CHANNELS 3 Xrotation Zrotation Yrotation 
			JOINT lFoot
			{
				OFFSET 0.000000 -19.30038 -1.231939
				CHANNELS 3 Xrotation Yrotation Zrotation 
				End Site
				{
					OFFSET 0.000000 -2.463878 4.653993
				}
			}
		}
	}
	JOINT rThigh
	{
		OFFSET -5.338403 -1.642589 1.368821
		CHANNELS 3 Xrotation Zrotation Yrotation 
		JOINT rShin
		{
			OFFSET 2.053232 -20.12167 0.000000
			CHANNELS 3 Xrotation Zrotation Yrotation 
			JOINT rFoot
			{
				OFFSET 0.000000 -19.30038 -1.231939
				CHANNELS 3 Xrotation Yrotation Zrotation 
				End Site
				{
					OFFSET 0.000000 -2.463878 4.653993
				}
			}
		}
	}
}
MOTION
Frames:	9
Frame Time:	0.03333333
0.000000 41.00000 0.000000 0.000000 0.000000 0.000000 0.000000 0.000000 0.000000 0.000000 0.000000 0.000000 0.000000 0.000000 0.000000 0.000000 0.000000 0.000000 0.000000 0.000000 0.000000 -82.00000 0.000000 0.000000 0.000000 0.000000 0.000000 0.000000 0.000000 0.000000 0.000000 0.000000 0.000000 82.00000 0.000000 0.000000 0.000000 0.000000 0.000000 0.000000 0.000000 0.000000 0.000000 0.000000 20.00000 0.000000 0.000000 0.000000 0.000000 0.000000 0.000000 0.000000 0.000000 -20.00000 0.000000 0.000000 0.000000 0.000000 0.000000 0.000000 
0.000000 41.00000 0.000000 1.000000 0.000000 0.000000 1.000000 0.000000 0.000000 1.000000 0.000000 0.000000 1.000000 0.000000 0.000000 1.000000 0.000000 0.000000 0.000000 0.000000 1.000000 -82.00000 0.000000 0.000000 0.000000 0.000000 1.000000 0.000000 0.000000 1.000000 0.000000 0.000000 1.000000 82.00000 0.000000 0.000000 0.000000 0.000000 1.000000 0.000000 0.000000 1.000000 0.000000 0.000000 20.00000 1.000000 0.000000 0.000000 1.000000 0.000000 0.000000 0.000000 0.000000 -20.00000 1.000000 0.000000 0.000000 1.000000 0.000000 0.000000 
0.000000 40.82143 0.000000 1.000000 0.000000 0.000000 0.9827586 0.000000 0.000000 0.9827586 0.000000 0.000000 1.000000 0.000000 0.000000 1.000000 0.000000 0.000000 0.000000 0.000000 0.9642857 -82.00000 0.000000 0.000000 0.000000 0.000000 0.9962686 0.000000 0.000000 0.9642857 0.000000 0.000000 0.9962686 82.00000 0.000000 0.000000 0.000000 0.000000 0.9642857 0.000000 0.000000 0.9642857 -1.285714 0.2857143 20.00000 1.535714 0.000000 0.000000 1.714286 0.000000 0.000000 -0.7142857 -0.2857143 -20.00000 2.750000 0.000000 0.000000 -0.7500000 0.000000 0.000000 
0.000000 40.64286 0.000000 1.000000 0.000000 0.000000 0.9655172 0.000000 0.000000 0.9655172 0.000000 0.000000 1.000000 0.000000 0.000000 1.000000 0.000000 0.000000 0.000000 0.000000 0.9285714 -82.00000 0.000000 0.000000 0.000000 0.000000 0.9925373 0.000000 0.000000 0.9285714 0.000000 0.000000 0.9925373 82.00000 0.000000 0.000000 0.000000 0.000000 0.9285714 0.000000 0.000000 0.9285714 -2.571429 0.5714286 20.00000 2.071429 0.000000 0.000000 2.428571 0.000000 0.000000 -1.428571 -0.5714286 -20.00000 4.500000 0.000000 0.000000 -2.500000 0.000000 0.000000 
0.000000 40.46429 0.000000 1.000000 0.000000 0.000000 0.9482759 0.000000 0.000000 0.9482759 0.000000 0.000000 1.000000 0.000000 0.000000 1.000000 0.000000 0.000000 0.000000 0.000000 0.8928571 -82.00000 0.000000 0.000000 0.000000 0.000000 0.9888059 0.000000 0.000000 0.8928571 0.000000 0.000000 0.9888059 82.00000 0.000000 0.000000 0.000000 0.000000 0.8928571 0.000000 0.000000 0.8928571 -3.857143 0.8571429 20.00000 2.607143 0.000000 0.000000 3.142857 0.000000 0.000000 -2.142857 -0.8571429 -20.00000 6.250000 0.000000 0.000000 -4.250000 0.000000 0.000000 
0.000000 40.28571 0.000000 1.000000 0.000000 0.000000 0.9310345 0.000000 0.000000 0.9310345 0.000000 0.000000 1.000000 0.000000 0.000000 1.000000 0.000000 0.000000 0.000000 0.000000 0.8571429 -82.00000 0.000000 0.000000 0.000000 0.000000 0.9850746 0.000000 0.000000 0.8571429 0.000000 0.000000 0.9850746 82.00000 0.000000 0.000000 0.000000 0.000000 0.8571429 0.000000 0.000000 0.8571429 -5.142857 1.142857 20.00000 3.142857 0.000000 0.000000 3.857143 0.000000 0.000000 -2.857143 -1.142857 -20.00000 8.000000 0.000000 0.000000 -6.000000 0.000000 0.000000 
0.000000 40.10714 0.000000 1.000000 0.000000 0.000000 0.9137931 0.000000 0.000000 0.9137931 0.000000 0.000000 1.000000 0.000000 0.000000 1.000000 0.000000 0.000000 0.000000 0.000000 0.8214286 -82.00000 0.000000 0.000000 0.000000 0.000000 0.9813433 0.000000 0.000000 0.8214286 0.000000 0.000000 0.9813433 82.00000 0.000000 0.000000 0.000000 0.000000 0.8214286 0.000000 0.000000 0.8214286 -6.428571 1.428571 20.00000 3.678571 0.000000 0.000000 4.571429 0.000000 0.000000 -3.571429 -1.428571 -20.00000 9.750000 0.000000 0.000000 -7.750000 0.000000 0.000000 
0.000000 39.92857 0.000000 1.000000 0.000000 0.000000 0.8965517 0.000000 0.000000 0.8965517 0.000000 0.000000 1.000000 0.000000 0.000000 1.000000 0.000000 0.000000 0.000000 0.000000 0.7857143 -82.00000 0.000000 0.000000 0.000000 0.000000 0.9776120 0.000000 0.000000 0.7857143 0.000000 0.000000 0.9776120 82.00000 0.000000 0.000000 0.000000 0.000000 0.7857143 0.000000 0.000000 0.7857143 -7.714286 1.714286 20.00000 4.214286 0.000000 0.000000 5.285714 0.000000 0.000000 -4.285714 -1.714286 -20.00000 11.50000 0.000000 0.000000 -9.500000 0.000000 0.000000 
0.000000 39.75000 0.000000 1.000000 0.000000 0.000000 0.8793104 0.000000 0.000000 0.8793104 0.000000 0.000000 1.000000 0.000000 0.000000 1.000000 0.000000 0.000000 0.000000 0.000000 0.7500000 -82.00000 0.000000 0.000000 0.000000 0.000000 0.9738806 0.000000 0.000000 0.7500000 0.000000 0.000000 0.9738806 82.00000 0.000000 0.000000 0.000000 0.000000 0.7500000 0.000000 0.000000 0.7500000 -9.000000 2.000000 20.00000 4.750000 0.000000 0.000000 6.000000 0.000000 0.000000 -5.000000 -2.000000 -20.00000 13.25000 0.000000 0.000000 -11.25000 0.000000 0.000000 
